<svg width="128" height="151" viewBox="0 0 128 151" fill="none" xmlns="http://www.w3.org/2000/svg"><path d="M5.778 87.18c-1.608 0-2.82-.474-3.636-1.422-.816-.948-1.224-2.25-1.224-3.906V74.4H3.06v7.524c0 1.032.228 1.848.684 2.448.468.588 1.146.882 2.034.882.876 0 1.542-.294 1.998-.882.468-.6.702-1.416.702-2.448V74.4h2.142v7.452c0 1.104-.186 2.058-.558 2.862-.36.792-.9 1.404-1.62 1.836-.708.42-1.596.63-2.664.63zm9.934.018c-1.092 0-1.98-.252-2.664-.756-.672-.516-1.074-1.266-1.206-2.25h1.944c.072.384.27.702.594.954.324.24.768.36 1.332.36.48 0 .888-.102 1.224-.306.348-.216.522-.522.522-.918 0-.36-.144-.624-.432-.792-.288-.18-.702-.312-1.242-.396l-1.062-.198a5.093 5.093 0 01-1.332-.432 2.676 2.676 0 01-.99-.828c-.252-.348-.378-.786-.378-1.314 0-.54.15-1.014.45-1.422.312-.408.738-.726 1.278-.954a4.766 4.766 0 011.836-.342c.96 0 1.764.234 2.412.702.66.468 1.05 1.152 1.17 2.052h-1.872c-.096-.36-.3-.636-.612-.828-.312-.204-.69-.306-1.134-.306-.48 0-.882.096-1.206.288-.312.192-.468.456-.468.792 0 .324.174.582.522.774.348.18.816.306 1.404.378l1.044.18c.48.072.912.204 1.296.396.384.192.69.468.918.828.228.348.342.798.342 1.35 0 .588-.162 1.11-.486 1.566-.312.444-.744.792-1.296 1.044-.54.252-1.176.378-1.908.378zm9.422-.018c-.912 0-1.716-.204-2.412-.612a4.53 4.53 0 01-1.62-1.71c-.396-.732-.594-1.554-.594-2.466 0-.924.198-1.746.594-2.466.408-.72.96-1.284 1.656-1.692.708-.42 1.506-.63 2.394-.63.912 0 1.698.186 2.358.558a3.912 3.912 0 011.548 1.512 4 4 0 01.558 2.088c0 .228-.006.414-.018.558-.012.132-.03.282-.054.45h-8.226v-1.422h6.264a2.107 2.107 0 00-.378-1.116 2.2 2.2 0 00-.864-.756c-.36-.18-.756-.27-1.188-.27-.468 0-.9.114-1.296.342a2.572 2.572 0 00-.936.99c-.228.42-.342.93-.342 1.53l-.054.414c0 .624.12 1.158.36 1.602.252.432.576.762.972.99.396.228.828.342 1.296.342.564 0 1.026-.108 1.386-.324.36-.216.636-.51.828-.882H29.4a3.943 3.943 0 01-.882 1.602 4.104 4.104 0 01-1.494 1.026 5.09 5.09 0 01-1.89.342zm12.955.018c-1.092 0-1.98-.252-2.664-.756-.672-.516-1.074-1.266-1.206-2.25h1.944c.072.384.27.702.594.954.324.24.768.36 1.332.36.48 0 .888-.102 1.224-.306.348-.216.522-.522.522-.918 0-.36-.144-.624-.432-.792-.288-.18-.702-.312-1.242-.396l-1.062-.198a5.093 5.093 0 01-1.332-.432 2.676 2.676 0 01-.99-.828c-.252-.348-.378-.786-.378-1.314 0-.54.15-1.014.45-1.422.312-.408.738-.726 1.278-.954a4.766 4.766 0 011.836-.342c.96 0 1.764.234 2.412.702.66.468 1.05 1.152 1.17 2.052h-1.872c-.096-.36-.3-.636-.612-.828-.312-.204-.69-.306-1.134-.306-.48 0-.882.096-1.206.288-.312.192-.468.456-.468.792 0 .324.174.582.522.774.348.18.816.306 1.404.378l1.044.18c.48.072.912.204 1.296.396.384.192.69.468.918.828.228.348.342.798.342 1.35 0 .588-.162 1.11-.486 1.566-.312.444-.744.792-1.296 1.044-.54.252-1.176.378-1.908.378zm9.422-.018c-.936 0-1.752-.204-2.448-.612a4.267 4.267 0 01-1.602-1.692c-.384-.72-.576-1.548-.576-2.484 0-.936.192-1.758.576-2.466a4.267 4.267 0 011.602-1.692c.696-.42 1.512-.63 2.448-.63.924 0 1.728.204 2.412.612a4.229 4.229 0 011.62 1.692c.384.72.576 1.548.576 2.484 0 .936-.192 1.764-.576 2.484a4.229 4.229 0 01-1.62 1.692c-.684.408-1.488.612-2.412.612zm0-1.854c.456 0 .876-.108 1.26-.324.384-.228.69-.564.918-1.008.228-.444.342-.978.342-1.602 0-.636-.114-1.17-.342-1.602-.228-.444-.534-.774-.918-.99a2.423 2.423 0 00-1.26-.342c-.468 0-.894.114-1.278.342-.384.216-.69.546-.918.99-.228.432-.342.966-.342 1.602 0 .624.114 1.158.342 1.602.228.444.534.78.918 1.008.384.216.81.324 1.278.324zM54.434 87v-9.576c0-1.08.282-1.884.846-2.412.576-.528 1.302-.792 2.178-.792h1.944v1.746h-1.71c-.396 0-.702.108-.918.324-.204.204-.306.558-.306 1.062V87h-2.034zm-1.728-7.578v-1.638h6.264v1.638h-6.264zM64.11 87c-.888 0-1.554-.27-1.998-.81-.444-.552-.666-1.32-.666-2.304v-8.55h2.034v8.406c0 .456.102.804.306 1.044.204.24.492.36.864.36h1.332V87H64.11zm-4.392-7.578v-1.638h6.264v1.638h-6.264zM69.06 87l-2.52-9.216h2.214l1.332 5.508.216 1.296h.144l.252-1.296 1.332-5.508h2.556l1.35 5.508.234 1.296h.144l.234-1.296 1.314-5.508h2.214L77.555 87H75l-1.422-5.958-.198-1.188h-.144l-.198 1.188L71.615 87H69.06zm14.624.18c-.552 0-1.044-.114-1.476-.342-.42-.24-.75-.564-.99-.972-.24-.408-.36-.888-.36-1.44 0-.576.132-1.068.396-1.476.264-.408.642-.732 1.134-.972.504-.24 1.11-.378 1.818-.414l2.538-.162v-.72c0-.432-.156-.768-.468-1.008-.3-.252-.726-.378-1.278-.378-.504 0-.9.12-1.188.36a1.582 1.582 0 00-.54.9h-2.052c.108-.936.504-1.662 1.188-2.178.684-.516 1.548-.774 2.592-.774 1.176 0 2.1.252 2.772.756.684.492 1.026 1.224 1.026 2.196V87h-1.908v-1.71h-.144a3.115 3.115 0 01-.612.99c-.252.288-.582.51-.99.666-.396.156-.882.234-1.458.234zm.756-1.71c.492 0 .906-.096 1.242-.288.348-.192.612-.45.792-.774.18-.336.27-.708.27-1.116v-.486l-2.07.144c-.564.036-.978.162-1.242.378-.252.216-.378.528-.378.936 0 .348.126.636.378.864.264.228.6.342 1.008.342zM90.46 87v-9.216h1.908v1.764h.144c.132-.6.42-1.044.864-1.332.444-.288 1.008-.432 1.692-.432h.936v1.854h-1.17c-.444 0-.84.096-1.188.288a2.084 2.084 0 00-.828.846c-.204.36-.306.816-.306 1.368V87H90.46zm10.56.18c-.912 0-1.716-.204-2.412-.612a4.53 4.53 0 01-1.62-1.71c-.396-.732-.594-1.554-.594-2.466 0-.924.198-1.746.594-2.466.408-.72.96-1.284 1.656-1.692.708-.42 1.506-.63 2.394-.63.912 0 1.698.186 2.358.558a3.912 3.912 0 011.548 1.512 4 4 0 01.558 2.088c0 .228-.006.414-.018.558-.012.132-.03.282-.054.45h-8.226v-1.422h6.264a2.107 2.107 0 00-.378-1.116 2.2 2.2 0 00-.864-.756c-.36-.18-.756-.27-1.188-.27-.468 0-.9.114-1.296.342a2.572 2.572 0 00-.936.99c-.228.42-.342.93-.342 1.53l-.054.414c0 .624.12 1.158.36 1.602.252.432.576.762.972.99.396.228.828.342 1.296.342.564 0 1.026-.108 1.386-.324.36-.216.636-.51.828-.882h2.034a3.943 3.943 0 01-.882 1.602 4.104 4.104 0 01-1.494 1.026 5.09 5.09 0 01-1.89.342zm-97.527 20c-.552 0-1.044-.114-1.476-.342-.42-.24-.75-.564-.99-.972-.24-.408-.36-.888-.36-1.44 0-.576.132-1.068.396-1.476.264-.408.642-.732 1.134-.972.504-.24 1.11-.378 1.818-.414l2.538-.162v-.72c0-.432-.156-.768-.468-1.008-.3-.252-.726-.378-1.278-.378-.504 0-.9.12-1.188.36a1.582 1.582 0 00-.54.9H1.026c.108-.936.504-1.662 1.188-2.178.684-.516 1.548-.774 2.592-.774 1.176 0 2.1.252 2.772.756.684.492 1.026 1.224 1.026 2.196V107H6.696v-1.71h-.144a3.115 3.115 0 01-.612.99c-.252.288-.582.51-.99.666-.396.156-.882.234-1.458.234zm.756-1.71c.492 0 .906-.096 1.242-.288.348-.192.612-.45.792-.774.18-.336.27-.708.27-1.116v-.486l-2.07.144c-.564.036-.978.162-1.242.378-.252.216-.378.528-.378.936 0 .348.126.636.378.864.264.228.6.342 1.008.342zm6.02 1.53v-9.216h1.908v1.908h.144c.24-.612.612-1.11 1.116-1.494.504-.396 1.134-.594 1.89-.594 1.08 0 1.896.336 2.448 1.008.564.672.846 1.614.846 2.826V107h-2.052v-5.382c0-.732-.168-1.272-.504-1.62-.324-.36-.78-.54-1.368-.54-.468 0-.882.108-1.242.324-.36.216-.642.522-.846.918-.192.384-.288.846-.288 1.386V107h-2.052zm13.799.18a3.905 3.905 0 01-2.088-.576c-.612-.396-1.098-.954-1.458-1.674-.36-.72-.54-1.566-.54-2.538 0-.972.174-1.818.522-2.538.36-.72.846-1.272 1.458-1.656a3.728 3.728 0 012.07-.594c.708 0 1.314.144 1.818.432.504.288.9.696 1.188 1.224h.144l-.144-1.386V94.22h2.052V107h-1.908v-1.566h-.144c-.3.516-.69.936-1.17 1.26-.48.324-1.08.486-1.8.486zm.522-1.854c.468 0 .888-.114 1.26-.342.384-.24.69-.576.918-1.008.228-.444.342-.972.342-1.584 0-.624-.114-1.152-.342-1.584a2.447 2.447 0 00-.918-.99 2.274 2.274 0 00-1.26-.36c-.468 0-.894.12-1.278.36a2.491 2.491 0 00-.9.99c-.228.432-.342.96-.342 1.584 0 .612.114 1.14.342 1.584.228.432.528.768.9 1.008.384.228.81.342 1.278.342zM34.332 107V94.22h2.052v3.564l-.144 1.908h.144c.228-.66.618-1.17 1.17-1.53.564-.372 1.23-.558 1.998-.558 1.068 0 1.884.336 2.448 1.008.564.66.846 1.62.846 2.88V107h-2.034v-5.346c0-.756-.174-1.308-.522-1.656-.348-.36-.834-.54-1.458-.54-.492 0-.924.114-1.296.342-.36.228-.642.546-.846.954-.204.396-.306.864-.306 1.404V107h-2.052zm12.86.18c-.553 0-1.045-.114-1.477-.342-.42-.24-.75-.564-.99-.972-.24-.408-.36-.888-.36-1.44 0-.576.132-1.068.396-1.476.264-.408.642-.732 1.134-.972.504-.24 1.11-.378 1.818-.414l2.538-.162v-.72c0-.432-.156-.768-.468-1.008-.3-.252-.726-.378-1.278-.378-.504 0-.9.12-1.188.36a1.582 1.582 0 00-.54.9h-2.052c.108-.936.504-1.662 1.188-2.178.684-.516 1.548-.774 2.592-.774 1.176 0 2.1.252 2.772.756.684.492 1.026 1.224 1.026 2.196V107h-1.908v-1.71h-.144a3.115 3.115 0 01-.612.99c-.252.288-.582.51-.99.666-.396.156-.882.234-1.458.234zm.755-1.71c.492 0 .906-.096 1.242-.288.348-.192.612-.45.792-.774.18-.336.27-.708.27-1.116v-.486l-2.07.144c-.564.036-.978.162-1.242.378-.252.216-.378.528-.378.936 0 .348.126.636.378.864.264.228.6.342 1.008.342zm6.02 1.53v-9.216h1.908v1.764h.144c.132-.6.42-1.044.864-1.332.444-.288 1.008-.432 1.692-.432h.936v1.854h-1.17c-.444 0-.84.096-1.188.288a2.084 2.084 0 00-.828.846c-.204.36-.306.816-.306 1.368V107h-2.052zm10.02.18a3.905 3.905 0 01-2.088-.576c-.612-.396-1.098-.954-1.458-1.674-.36-.72-.54-1.566-.54-2.538 0-.972.174-1.818.522-2.538.36-.72.846-1.272 1.458-1.656a3.728 3.728 0 012.07-.594c.708 0 1.314.144 1.818.432.504.288.9.696 1.188 1.224h.144l-.144-1.386V94.22h2.052V107H67.1v-1.566h-.144c-.3.516-.69.936-1.17 1.26-.48.324-1.08.486-1.8.486zm.522-1.854c.468 0 .888-.114 1.26-.342.384-.24.69-.576.918-1.008.228-.444.342-.972.342-1.584 0-.624-.114-1.152-.342-1.584a2.447 2.447 0 00-.918-.99 2.274 2.274 0 00-1.26-.36c-.468 0-.894.12-1.278.36a2.491 2.491 0 00-.9.99c-.228.432-.342.96-.342 1.584 0 .612.114 1.14.342 1.584.228.432.528.768.9 1.008.384.228.81.342 1.278.342zM72.627 107l-2.52-9.216h2.215l1.331 5.508.216 1.296h.144l.252-1.296 1.332-5.508h2.556l1.35 5.508.234 1.296h.145l.233-1.296 1.315-5.508h2.213L81.124 107h-2.556l-1.421-5.958-.198-1.188h-.144l-.198 1.188L75.184 107h-2.556zm14.625.18c-.552 0-1.044-.114-1.476-.342-.42-.24-.75-.564-.99-.972-.24-.408-.36-.888-.36-1.44 0-.576.132-1.068.396-1.476.264-.408.642-.732 1.134-.972.504-.24 1.11-.378 1.818-.414l2.538-.162v-.72c0-.432-.156-.768-.468-1.008-.3-.252-.726-.378-1.278-.378-.504 0-.9.12-1.188.36a1.582 1.582 0 00-.54.9h-2.052c.108-.936.504-1.662 1.188-2.178.684-.516 1.548-.774 2.592-.774 1.176 0 2.1.252 2.772.756.684.492 1.026 1.224 1.026 2.196V107h-1.908v-1.71h-.144a3.115 3.115 0 01-.612.99c-.252.288-.582.51-.99.666-.396.156-.882.234-1.458.234zm.756-1.71c.492 0 .906-.096 1.242-.288.348-.192.612-.45.792-.774.18-.336.27-.708.27-1.116v-.486l-2.07.144c-.564.036-.978.162-1.242.378-.252.216-.378.528-.378.936 0 .348.126.636.378.864.264.228.6.342 1.008.342zm6.02 1.53v-9.216h1.908v1.764h.144c.132-.6.42-1.044.864-1.332.444-.288 1.008-.432 1.692-.432h.936v1.854h-1.17c-.444 0-.84.096-1.188.288a2.084 2.084 0 00-.828.846c-.204.36-.306.816-.306 1.368V107h-2.052zm10.559.18c-.912 0-1.716-.204-2.412-.612a4.53 4.53 0 01-1.62-1.71c-.396-.732-.594-1.554-.594-2.466 0-.924.198-1.746.594-2.466.408-.72.96-1.284 1.656-1.692.708-.42 1.506-.63 2.394-.63.912 0 1.698.186 2.358.558a3.912 3.912 0 011.548 1.512 4 4 0 01.558 2.088c0 .228-.006.414-.018.558-.012.132-.03.282-.054.45h-8.226v-1.422h6.264a2.107 2.107 0 00-.378-1.116 2.2 2.2 0 00-.864-.756c-.36-.18-.756-.27-1.188-.27-.468 0-.9.114-1.296.342a2.572 2.572 0 00-.936.99c-.228.42-.342.93-.342 1.53l-.054.414c0 .624.12 1.158.36 1.602.252.432.576.762.972.99.396.228.828.342 1.296.342.564 0 1.026-.108 1.386-.324.36-.216.636-.51.828-.882h2.034a3.943 3.943 0 01-.882 1.602 4.104 4.104 0 01-1.494 1.026 5.09 5.09 0 01-1.89.342zm-98.719 20c-.732 0-1.338-.162-1.818-.486a3.879 3.879 0 01-1.152-1.26h-.144V127H.846v-12.78h2.052v3.654l-.144 1.44h.144c.288-.564.684-.99 1.188-1.278.504-.288 1.11-.432 1.818-.432.768 0 1.458.198 2.07.594.612.384 1.092.936 1.44 1.656.36.72.54 1.566.54 2.538 0 .972-.18 1.818-.54 2.538-.348.72-.834 1.278-1.458 1.674-.612.384-1.308.576-2.088.576zm-.522-1.854c.468 0 .888-.114 1.26-.342.384-.228.69-.564.918-1.008.228-.444.342-.972.342-1.584 0-.624-.114-1.152-.342-1.584a2.447 2.447 0 00-.918-.99 2.274 2.274 0 00-1.26-.36c-.468 0-.894.12-1.278.36a2.491 2.491 0 00-.9.99c-.228.432-.342.96-.342 1.584 0 .612.114 1.14.342 1.584.228.444.528.78.9 1.008.384.228.81.342 1.278.342zm9.307 1.854c-1.092 0-1.92-.336-2.484-1.008-.564-.672-.846-1.614-.846-2.826v-5.562h2.052v5.382c0 .732.162 1.278.486 1.638.336.348.798.522 1.386.522.48 0 .9-.108 1.26-.324.36-.216.636-.522.828-.918.192-.396.288-.858.288-1.386v-4.914h2.052V127h-1.908v-1.908h-.144a3.445 3.445 0 01-1.08 1.512c-.492.384-1.122.576-1.89.576zm6.707-.18v-9.216h2.052V127H21.36zm1.026-10.512c-.348 0-.648-.126-.9-.378a1.229 1.229 0 01-.378-.9c0-.348.126-.642.378-.882.252-.252.552-.378.9-.378s.642.126.882.378c.252.24.378.534.378.882s-.126.648-.378.9a1.17 1.17 0 01-.882.378zm2.7 10.512v-12.78h2.052V127h-2.052zm7.47 0c-.888 0-1.554-.27-1.998-.81-.444-.552-.666-1.32-.666-2.304v-8.55h2.034v8.406c0 .456.102.804.306 1.044.204.24.492.36.864.36h1.332V127h-1.872zm-4.392-7.578v-1.638h6.264v1.638h-6.264zM42.857 127c-.888 0-1.554-.27-1.998-.81-.444-.552-.666-1.32-.666-2.304v-8.55h2.034v8.406c0 .456.102.804.306 1.044.204.24.492.36.864.36h1.332V127h-1.872zm-4.392-7.578v-1.638h6.264v1.638h-6.264zm11.454 7.758c-.935 0-1.752-.204-2.447-.612a4.267 4.267 0 01-1.602-1.692c-.384-.72-.576-1.548-.576-2.484 0-.936.192-1.758.576-2.466a4.267 4.267 0 011.602-1.692c.695-.42 1.511-.63 2.447-.63.925 0 1.729.204 2.413.612a4.229 4.229 0 011.62 1.692c.384.72.576 1.548.576 2.484 0 .936-.192 1.764-.576 2.484a4.229 4.229 0 01-1.62 1.692c-.684.408-1.489.612-2.413.612zm0-1.854c.457 0 .877-.108 1.26-.324.384-.228.69-.564.918-1.008.228-.444.343-.978.343-1.602 0-.636-.114-1.17-.343-1.602-.227-.444-.534-.774-.918-.99a2.423 2.423 0 00-1.26-.342c-.467 0-.893.114-1.277.342-.385.216-.69.546-.919.99-.227.432-.341.966-.341 1.602 0 .624.114 1.158.342 1.602.228.444.534.78.918 1.008.383.216.81.324 1.277.324zM61.379 127l-2.52-9.216h2.214l1.331 5.508.217 1.296h.144l.252-1.296 1.331-5.508h2.556l1.35 5.508.234 1.296h.145l.233-1.296 1.315-5.508h2.213L69.874 127h-2.556l-1.421-5.958-.198-1.188h-.144l-.198 1.188L63.934 127h-2.556zm16.122.18c-.936 0-1.752-.204-2.448-.612a4.267 4.267 0 01-1.602-1.692c-.384-.72-.576-1.548-.576-2.484 0-.936.192-1.758.576-2.466a4.267 4.267 0 011.602-1.692c.696-.42 1.512-.63 2.448-.63.924 0 1.728.204 2.412.612a4.229 4.229 0 011.62 1.692c.384.72.576 1.548.576 2.484 0 .936-.192 1.764-.576 2.484a4.229 4.229 0 01-1.62 1.692c-.684.408-1.488.612-2.412.612zm0-1.854c.456 0 .876-.108 1.26-.324.384-.228.69-.564.918-1.008.228-.444.342-.978.342-1.602 0-.636-.114-1.17-.342-1.602-.228-.444-.534-.774-.918-.99a2.423 2.423 0 00-1.26-.342c-.468 0-.894.114-1.278.342-.384.216-.69.546-.918.99-.228.432-.342.966-.342 1.602 0 .624.114 1.158.342 1.602.228.444.534.78.918 1.008.384.216.81.324 1.278.324zM83.48 127v-9.216h1.909v1.764h.144c.132-.6.42-1.044.864-1.332.444-.288 1.008-.432 1.692-.432h.936v1.854h-1.17c-.444 0-.84.096-1.188.288a2.084 2.084 0 00-.828.846c-.204.36-.306.816-.306 1.368V127H83.48zm12.168 0l-3.546-4.77 3.456-4.446h2.394l-3.51 4.446 3.6 4.77h-2.394zm-3.438-4.32v-.9h.504v.9h-.504zM90.266 127v-12.78h2.052V127h-2.052zM4.572 147c-.888 0-1.554-.27-1.998-.81-.444-.552-.666-1.32-.666-2.304v-8.55h2.034v8.406c0 .456.102.804.306 1.044.204.24.492.36.864.36h1.332V147H4.572zM.18 139.422v-1.638h6.264v1.638H.18zm11.454 7.758c-.936 0-1.752-.204-2.448-.612a4.267 4.267 0 01-1.602-1.692c-.384-.72-.576-1.548-.576-2.484 0-.936.192-1.758.576-2.466a4.267 4.267 0 011.602-1.692c.696-.42 1.512-.63 2.448-.63.924 0 1.728.204 2.412.612a4.229 4.229 0 011.62 1.692c.384.72.576 1.548.576 2.484 0 .936-.192 1.764-.576 2.484a4.229 4.229 0 01-1.62 1.692c-.684.408-1.488.612-2.412.612zm0-1.854c.456 0 .876-.108 1.26-.324.384-.228.69-.564.918-1.008.228-.444.342-.978.342-1.602 0-.636-.114-1.17-.342-1.602-.228-.444-.534-.774-.918-.99a2.423 2.423 0 00-1.26-.342c-.468 0-.894.114-1.278.342-.384.216-.69.546-.918.99-.228.432-.342.966-.342 1.602 0 .624.114 1.158.342 1.602.228.444.534.78.918 1.008.384.216.81.324 1.278.324zm10.23 5.238c-1.273 0-2.274-.27-3.006-.81-.733-.528-1.195-1.224-1.387-2.088h2.178c.12.336.36.618.72.846.36.24.858.36 1.494.36.756 0 1.332-.222 1.729-.666.408-.432.611-1.008.611-1.728l.09-1.134h-.143c-.228.456-.588.828-1.08 1.116-.48.288-1.08.432-1.8.432a3.716 3.716 0 01-1.998-.558c-.6-.372-1.08-.9-1.44-1.584-.36-.696-.54-1.53-.54-2.502 0-.96.18-1.788.54-2.484.36-.696.84-1.23 1.44-1.602a3.716 3.716 0 011.998-.558c.707 0 1.308.144 1.8.432.491.288.87.684 1.133 1.188h.145v-1.44h1.908v8.496c0 .924-.186 1.704-.558 2.34a3.481 3.481 0 01-1.53 1.44c-.648.336-1.416.504-2.305.504zm-.055-5.526c.456 0 .87-.102 1.242-.306.373-.216.667-.528.883-.936.227-.42.341-.936.341-1.548s-.113-1.122-.341-1.53c-.216-.42-.51-.732-.883-.936a2.428 2.428 0 00-1.241-.324c-.444 0-.852.108-1.224.324-.36.204-.654.516-.883.936-.215.408-.323.918-.323 1.53s.108 1.128.323 1.548c.229.408.523.72.883.936.372.204.78.306 1.224.306zm10.445 2.142c-.912 0-1.716-.204-2.412-.612a4.53 4.53 0 01-1.62-1.71c-.396-.732-.595-1.554-.595-2.466 0-.924.199-1.746.595-2.466.407-.72.96-1.284 1.655-1.692.709-.42 1.507-.63 2.395-.63.912 0 1.697.186 2.358.558a3.912 3.912 0 011.547 1.512 4 4 0 01.559 2.088c0 .228-.006.414-.018.558-.013.132-.03.282-.055.45h-8.225v-1.422h6.264a2.107 2.107 0 00-.378-1.116 2.2 2.2 0 00-.864-.756c-.36-.18-.757-.27-1.188-.27-.468 0-.9.114-1.296.342a2.572 2.572 0 00-.936.99c-.229.42-.342.93-.342 1.53l-.055.414c0 .624.12 1.158.36 1.602.253.432.576.762.973.99.396.228.828.342 1.296.342.564 0 1.026-.108 1.386-.324.36-.216.636-.51.828-.882h2.034a3.943 3.943 0 01-.883 1.602 4.104 4.104 0 01-1.493 1.026 5.09 5.09 0 01-1.89.342zm9.215-.18c-.889 0-1.555-.27-1.998-.81-.444-.552-.666-1.32-.666-2.304v-8.55h2.034v8.406c0 .456.102.804.306 1.044.203.24.491.36.863.36h1.332V147h-1.872zm-4.392-7.578v-1.638h6.264v1.638h-6.264zM44.493 147v-12.78h2.051v3.564l-.143 1.908h.143c.229-.66.619-1.17 1.17-1.53.565-.372 1.23-.558 1.998-.558 1.069 0 1.884.336 2.448 1.008.565.66.847 1.62.847 2.88V147h-2.035v-5.346c0-.756-.174-1.308-.522-1.656-.348-.36-.834-.54-1.458-.54-.491 0-.923.114-1.295.342-.36.228-.643.546-.847.954-.203.396-.306.864-.306 1.404V147h-2.051zm14.514.18c-.912 0-1.716-.204-2.412-.612a4.53 4.53 0 01-1.62-1.71c-.396-.732-.594-1.554-.594-2.466 0-.924.198-1.746.594-2.466.408-.72.96-1.284 1.656-1.692.708-.42 1.506-.63 2.394-.63.912 0 1.698.186 2.358.558a3.912 3.912 0 011.548 1.512 4 4 0 01.558 2.088c0 .228-.006.414-.018.558-.012.132-.03.282-.054.45h-8.226v-1.422h6.264a2.107 2.107 0 00-.378-1.116 2.2 2.2 0 00-.864-.756c-.36-.18-.756-.27-1.188-.27-.468 0-.9.114-1.296.342a2.572 2.572 0 00-.936.99c-.228.42-.342.93-.342 1.53l-.054.414c0 .624.12 1.158.36 1.602.252.432.576.762.972.99.396.228.828.342 1.296.342.564 0 1.026-.108 1.386-.324.36-.216.636-.51.828-.882h2.034a3.943 3.943 0 01-.882 1.602 4.104 4.104 0 01-1.494 1.026 5.09 5.09 0 01-1.89.342zm5.858-.18v-9.216h1.909v1.764h.144c.131-.6.42-1.044.863-1.332.444-.288 1.008-.432 1.692-.432h.936v1.854h-1.17c-.444 0-.84.096-1.188.288a2.084 2.084 0 00-.828.846c-.204.36-.305.816-.305 1.368V147h-2.053zm5.406.126a1.28 1.28 0 01-.936-.396 1.3 1.3 0 01-.396-.954c0-.36.132-.672.396-.936a1.28 1.28 0 01.936-.396c.36 0 .666.132.918.396.264.264.396.576.396.936a1.3 1.3 0 01-.396.954 1.222 1.222 0 01-.918.396z" fill="#fff"/></svg>