<svg width="65" height="17" viewBox="0 0 65 17" fill="none" xmlns="http://www.w3.org/2000/svg"><g clip-path="url(#clip0_1412_2926)"><path d="M13.587.125H2.749C2.027.125 1.335.411.825.92a2.71 2.71 0 00-.797 1.918v10.81c0 .72.287 1.41.797 1.918.51.51 1.202.795 1.924.795h10.838c.721 0 1.413-.286 1.924-.795a2.71 2.71 0 00.797-1.918V2.838c0-.72-.287-1.41-.797-1.918a2.725 2.725 0 00-1.924-.795zm-.238 12.428a.856.856 0 01-.858.857H3.848a.86.86 0 01-.859-.857V3.934a.856.856 0 01.86-.856h8.64a.86.86 0 01.859.856v8.619zm-6.907-2.106a.493.493 0 01-.493-.494v-3.44a.49.49 0 01.493-.495h3.455a.495.495 0 01.493.495v3.44a.492.492 0 01-.493.494H6.442zm14.183-.235h1.777c.09 1.004.77 1.785 2.147 1.785 1.23 0 1.985-.606 1.985-1.517 0-.857-.592-1.242-1.659-1.493l-1.377-.295c-1.496-.325-2.622-1.285-2.622-2.851 0-1.728 1.541-2.91 3.54-2.91 2.118 0 3.48 1.108 3.599 2.747h-1.718c-.207-.768-.844-1.226-1.88-1.226-1.095 0-1.85.59-1.85 1.345 0 .754.65 1.21 1.776 1.462l1.36.29c1.497.325 2.519 1.226 2.519 2.807 0 2.008-1.51 3.205-3.67 3.205-2.434.004-3.776-1.31-3.928-3.35zm13.959 6.149v-2.945l.116-1.29h-.116c-.406.928-1.264 1.434-2.426 1.434-1.874 0-3.268-1.517-3.268-3.853 0-2.337 1.394-3.854 3.268-3.854 1.148 0 1.962.536 2.426 1.376h.116V5.998h1.54V16.36h-1.656zm.058-6.65c0-1.492-.914-2.361-2.034-2.361-1.12 0-2.033.869-2.033 2.361 0 1.492.915 2.362 2.033 2.362 1.119 0 2.03-.865 2.03-2.362h.004zm2.829.768V6.002h1.649v4.332c0 1.174.566 1.739 1.511 1.739 1.163 0 1.917-.826 1.917-2.115V6.002h1.656v7.418h-1.537v-1.536h-.117c-.362.982-1.163 1.68-2.396 1.68-1.773 0-2.687-1.129-2.687-3.085h.004zm7.75.869c0-1.39.972-2.202 2.701-2.303l2.048-.13v-.58c0-.696-.508-1.116-1.409-1.116-.828 0-1.322.42-1.452 1.014h-1.66c.174-1.506 1.424-2.375 3.108-2.375 1.904 0 3.066.81 3.066 2.375v5.187h-1.54v-1.376h-.116c-.348.912-1.074 1.517-2.47 1.517-1.336.004-2.28-.894-2.28-2.213h.004zm4.75-.912v-.388l-1.671.116c-.9.058-1.308.392-1.308 1.057 0 .565.466.971 1.119.971 1.173-.002 1.856-.757 1.856-1.756h.003zm2.889 2.984V6.002h1.54v1.42h.11c.218-.971.96-1.42 2.063-1.42h.756v1.492h-.94c-1.073 0-1.873.696-1.873 2.015v3.911H52.86zm12.053-3.405H59.26c.09 1.362 1.046 2.13 2.106 2.13.9 0 1.467-.362 1.79-.97h1.642c-.448 1.506-1.773 2.39-3.444 2.39-2.193 0-3.733-1.637-3.733-3.854s1.584-3.853 3.749-3.853c2.179 0 3.602 1.492 3.602 3.346a6.118 6.118 0 01-.062.811h.004zM63.33 8.87c-.058-1.028-.914-1.723-1.96-1.723-.985 0-1.817.625-2.02 1.723h3.98z" fill="#fff"/></g><defs><clipPath id="clip0_1412_2926"><path fill="#fff" d="M0 0h65v16.508H0z"/></clipPath></defs></svg>