<svg width="128" height="150" viewBox="0 0 128 150" fill="none" xmlns="http://www.w3.org/2000/svg"><path d="M5.346 127.18c-.984 0-1.818-.168-2.502-.504a3.847 3.847 0 01-1.602-1.422c-.384-.612-.606-1.332-.666-2.16h2.16c.06.612.3 1.128.72 1.548.42.42 1.05.63 1.89.63.744 0 1.332-.168 1.764-.504.432-.336.648-.786.648-1.35 0-.528-.174-.924-.522-1.188-.348-.264-.846-.474-1.494-.63l-1.674-.36a5.314 5.314 0 01-1.638-.648c-.48-.3-.858-.684-1.134-1.152-.276-.48-.414-1.038-.414-1.674 0-.708.186-1.326.558-1.854.384-.528.9-.942 1.548-1.242.66-.3 1.392-.45 2.196-.45.864 0 1.608.144 2.232.432.636.276 1.14.666 1.512 1.17.372.492.582 1.074.63 1.746H7.47a1.84 1.84 0 00-.756-1.098c-.384-.264-.894-.396-1.53-.396-.66 0-1.2.156-1.62.468-.42.312-.63.702-.63 1.17 0 .468.186.846.558 1.134.384.276.918.492 1.602.648l1.656.36c.612.12 1.146.33 1.602.63.456.288.81.666 1.062 1.134.264.456.396 1.008.396 1.656 0 .816-.192 1.518-.576 2.106-.372.576-.894 1.02-1.566 1.332-.672.312-1.446.468-2.322.468zm10.279 0c-.912 0-1.716-.204-2.412-.612a4.53 4.53 0 01-1.62-1.71c-.396-.732-.594-1.554-.594-2.466 0-.924.198-1.746.594-2.466.408-.72.96-1.284 1.656-1.692.708-.42 1.506-.63 2.394-.63.912 0 1.698.186 2.358.558a3.912 3.912 0 011.548 1.512 4 4 0 01.558 2.088c0 .228-.006.414-.018.558-.012.132-.03.282-.054.45h-8.226v-1.422h6.264a2.107 2.107 0 00-.378-1.116 2.2 2.2 0 00-.864-.756c-.36-.18-.756-.27-1.188-.27-.468 0-.9.114-1.296.342a2.572 2.572 0 00-.936.99c-.228.42-.342.93-.342 1.53l-.054.414c0 .624.12 1.158.36 1.602.252.432.576.762.972.99.396.228.828.342 1.296.342.564 0 1.026-.108 1.386-.324.36-.216.636-.51.828-.882h2.034a3.943 3.943 0 01-.882 1.602 4.104 4.104 0 01-1.494 1.026 5.09 5.09 0 01-1.89.342zm9.215-.18c-.888 0-1.554-.27-1.998-.81-.444-.552-.666-1.32-.666-2.304v-8.55h2.034v8.406c0 .456.102.804.306 1.044.204.24.492.36.864.36h1.332V127H24.84zm-4.392-7.578v-1.638h6.264v1.638h-6.264zm14.296 7.758c-1.092 0-1.92-.336-2.484-1.008-.564-.672-.846-1.614-.846-2.826v-5.562h2.052v5.382c0 .732.162 1.278.486 1.638.336.348.798.522 1.386.522.48 0 .9-.108 1.26-.324.36-.216.636-.522.828-.918.192-.396.288-.858.288-1.386v-4.914h2.052V127h-1.908v-1.908h-.144a3.445 3.445 0 01-1.08 1.512c-.492.384-1.122.576-1.89.576zm6.708 3.204v-12.6h1.907v1.566h.145a3.197 3.197 0 011.17-1.26c.504-.324 1.115-.486 1.836-.486.78 0 1.476.198 2.087.594.612.384 1.093.936 1.44 1.656.349.72.523 1.566.523 2.538 0 .972-.18 1.818-.54 2.538-.349.72-.829 1.278-1.44 1.674a3.814 3.814 0 01-2.07.576c-.72 0-1.338-.15-1.854-.45a2.916 2.916 0 01-1.152-1.26h-.145l.145 1.53v3.384h-2.052zm4.5-5.058c.468 0 .888-.114 1.26-.342.383-.24.69-.576.917-1.008.229-.444.343-.972.343-1.584 0-.624-.114-1.152-.343-1.584a2.447 2.447 0 00-.917-.99 2.274 2.274 0 00-1.26-.36c-.468 0-.895.12-1.279.36a2.491 2.491 0 00-.9.99c-.228.432-.342.96-.342 1.584 0 .612.114 1.14.343 1.584.227.432.527.768.9 1.008.383.228.81.342 1.278.342zM55.479 127v-9.216h2.052V127h-2.052zm1.026-10.512c-.348 0-.648-.126-.9-.378a1.229 1.229 0 01-.378-.9c0-.348.126-.642.378-.882.252-.252.552-.378.9-.378s.642.126.882.378c.252.24.378.534.378.882s-.126.648-.378.9a1.17 1.17 0 01-.882.378zM62.93 127c-.888 0-1.554-.27-1.998-.81-.444-.552-.666-1.32-.666-2.304v-8.55h2.034v8.406c0 .456.102.804.306 1.044.204.24.492.36.864.36h1.332V127h-1.872zm-4.392-7.578v-1.638h6.264v1.638H58.54zm11.455 7.758c-.912 0-1.716-.204-2.412-.612a4.53 4.53 0 01-1.62-1.71c-.396-.732-.594-1.554-.594-2.466 0-.924.198-1.746.594-2.466.408-.72.96-1.284 1.656-1.692.708-.42 1.506-.63 2.394-.63.912 0 1.698.186 2.358.558a3.912 3.912 0 011.548 1.512 4 4 0 01.558 2.088c0 .228-.006.414-.018.558-.012.132-.03.282-.054.45h-8.226v-1.422h6.264a2.107 2.107 0 00-.378-1.116 2.2 2.2 0 00-.864-.756c-.36-.18-.756-.27-1.188-.27-.468 0-.9.114-1.296.342a2.572 2.572 0 00-.936.99c-.228.42-.342.93-.342 1.53l-.054.414c0 .624.12 1.158.36 1.602.252.432.576.762.972.99.396.228.828.342 1.296.342.564 0 1.026-.108 1.386-.324.36-.216.636-.51.828-.882h2.034a3.943 3.943 0 01-.882 1.602 4.104 4.104 0 01-1.494 1.026 5.09 5.09 0 01-1.89.342zm5.858-.18v-9.216h1.908v1.692h.144c.168-.54.474-.984.918-1.332.456-.36 1.014-.54 1.674-.54.696 0 1.248.174 1.656.522.408.336.69.792.846 1.368h.144a2.89 2.89 0 011.008-1.368c.48-.348 1.104-.522 1.872-.522.948 0 1.65.294 2.106.882.468.576.702 1.38.702 2.412V127h-2.052v-5.868c0-.552-.138-.966-.414-1.242-.276-.288-.654-.432-1.134-.432-.552 0-1.002.198-1.35.594-.348.384-.522.924-.522 1.62V127h-2.052v-5.868c0-.552-.138-.966-.414-1.242-.264-.288-.642-.432-1.134-.432-.552 0-1.002.198-1.35.594-.336.384-.504.924-.504 1.62V127h-2.052zm18.224.198c-1.092 0-1.98-.252-2.664-.756-.672-.516-1.074-1.266-1.206-2.25h1.944c.072.384.27.702.594.954.324.24.768.36 1.332.36.48 0 .888-.102 1.224-.306.348-.216.522-.522.522-.918 0-.36-.144-.624-.432-.792-.288-.18-.702-.312-1.242-.396l-1.062-.198a5.093 5.093 0 01-1.332-.432 2.676 2.676 0 01-.99-.828c-.252-.348-.378-.786-.378-1.314 0-.54.15-1.014.45-1.422.312-.408.738-.726 1.278-.954a4.766 4.766 0 011.836-.342c.96 0 1.764.234 2.412.702.66.468 1.05 1.152 1.17 2.052H95.66c-.096-.36-.3-.636-.612-.828-.312-.204-.69-.306-1.134-.306-.48 0-.882.096-1.206.288-.312.192-.468.456-.468.792 0 .324.174.582.522.774.348.18.816.306 1.404.378l1.044.18c.48.072.912.204 1.296.396.384.192.69.468.918.828.228.348.342.798.342 1.35 0 .588-.162 1.11-.486 1.566-.312.444-.744.792-1.296 1.044-.54.252-1.176.378-1.908.378zM.846 147v-9.216h2.052V147H.846zm1.026-10.512c-.348 0-.648-.126-.9-.378a1.229 1.229 0 01-.378-.9c0-.348.126-.642.378-.882.252-.252.552-.378.9-.378s.642.126.882.378c.252.24.378.534.378.882s-.126.648-.378.9a1.17 1.17 0 01-.882.378zM4.572 147v-9.216h1.909v1.908h.144c.24-.612.612-1.11 1.116-1.494.504-.396 1.134-.594 1.89-.594 1.08 0 1.896.336 2.448 1.008.564.672.846 1.614.846 2.826V147h-2.052v-5.382c0-.732-.168-1.272-.504-1.62-.324-.36-.78-.54-1.368-.54-.468 0-.882.108-1.242.324-.36.216-.642.522-.846.918-.192.384-.288.846-.288 1.386V147H4.573zm13.588 0v-9.216h1.909v1.692h.143c.169-.54.474-.984.919-1.332.456-.36 1.014-.54 1.674-.54.695 0 1.247.174 1.655.522.409.336.69.792.846 1.368h.145a2.89 2.89 0 011.008-1.368c.48-.348 1.104-.522 1.872-.522.948 0 1.65.294 2.105.882.468.576.703 1.38.703 2.412V147h-2.052v-5.868c0-.552-.139-.966-.415-1.242-.276-.288-.654-.432-1.134-.432-.552 0-1.002.198-1.35.594-.348.384-.521.924-.521 1.62V147h-2.053v-5.868c0-.552-.137-.966-.413-1.242-.265-.288-.643-.432-1.134-.432-.552 0-1.003.198-1.35.594-.336.384-.505.924-.505 1.62V147H18.16zm14.678 0v-9.216h2.052V147h-2.052zm1.026-10.512c-.348 0-.648-.126-.9-.378a1.229 1.229 0 01-.378-.9c0-.348.126-.642.378-.882.252-.252.552-.378.9-.378s.642.126.882.378c.252.24.378.534.378.882s-.126.648-.378.9a1.17 1.17 0 01-.882.378zm2.7 10.512v-9.216h1.909v1.908h.144c.24-.612.612-1.11 1.116-1.494.504-.396 1.134-.594 1.89-.594 1.08 0 1.896.336 2.448 1.008.564.672.846 1.614.846 2.826V147h-2.052v-5.382c0-.732-.168-1.272-.504-1.62-.324-.36-.78-.54-1.368-.54-.468 0-.882.108-1.242.324-.36.216-.642.522-.846.918-.192.384-.288.846-.288 1.386V147h-2.052zm13.368.18c-1.092 0-1.92-.336-2.484-1.008-.564-.672-.846-1.614-.846-2.826v-5.562h2.052v5.382c0 .732.162 1.278.486 1.638.336.348.798.522 1.386.522.48 0 .9-.108 1.26-.324.36-.216.636-.522.828-.918.192-.396.288-.858.288-1.386v-4.914h2.052V147h-1.908v-1.908h-.144a3.445 3.445 0 01-1.08 1.512c-.492.384-1.122.576-1.89.576zm10.433-.18c-.888 0-1.554-.27-1.998-.81-.444-.552-.666-1.32-.666-2.304v-8.55h2.034v8.406c0 .456.102.804.306 1.044.204.24.492.36.864.36h1.332V147h-1.872zm-4.392-7.578v-1.638h6.264v1.638h-6.264zm11.454 7.758c-.912 0-1.716-.204-2.412-.612a4.53 4.53 0 01-1.62-1.71c-.396-.732-.594-1.554-.594-2.466 0-.924.198-1.746.594-2.466.408-.72.96-1.284 1.656-1.692.708-.42 1.506-.63 2.394-.63.912 0 1.698.186 2.358.558a3.912 3.912 0 011.548 1.512 4 4 0 01.558 2.088c0 .228-.006.414-.018.558-.012.132-.03.282-.054.45h-8.226v-1.422h6.264a2.107 2.107 0 00-.378-1.116 2.2 2.2 0 00-.864-.756c-.36-.18-.756-.27-1.188-.27-.468 0-.9.114-1.296.342a2.572 2.572 0 00-.936.99c-.228.42-.342.93-.342 1.53l-.054.414c0 .624.12 1.158.36 1.602.252.432.576.762.972.99.396.228.828.342 1.296.342.564 0 1.026-.108 1.386-.324.36-.216.636-.51.828-.882h2.034a3.943 3.943 0 01-.882 1.602 4.104 4.104 0 01-1.494 1.026 5.09 5.09 0 01-1.89.342zm9.404.018c-1.091 0-1.98-.252-2.663-.756-.672-.516-1.075-1.266-1.207-2.25h1.945c.072.384.27.702.593.954.325.24.769.36 1.333.36.48 0 .888-.102 1.224-.306.347-.216.522-.522.522-.918 0-.36-.145-.624-.433-.792-.287-.18-.701-.312-1.242-.396l-1.062-.198a5.093 5.093 0 01-1.331-.432 2.676 2.676 0 01-.99-.828c-.252-.348-.379-.786-.379-1.314 0-.54.15-1.014.45-1.422.313-.408.739-.726 1.279-.954a4.766 4.766 0 011.835-.342c.96 0 1.764.234 2.413.702.66.468 1.05 1.152 1.17 2.052h-1.873c-.096-.36-.3-.636-.612-.828-.311-.204-.69-.306-1.133-.306-.48 0-.883.096-1.207.288-.311.192-.467.456-.467.792 0 .324.174.582.522.774.347.18.816.306 1.403.378l1.044.18c.48.072.912.204 1.296.396.385.192.69.468.919.828.227.348.341.798.341 1.35 0 .588-.162 1.11-.486 1.566-.311.444-.743.792-1.295 1.044-.54.252-1.176.378-1.908.378zm5.587-.072a1.28 1.28 0 01-.937-.396 1.3 1.3 0 01-.395-.954c0-.36.132-.672.395-.936a1.28 1.28 0 01.937-.396c.36 0 .665.132.917.396.265.264.397.576.397.936a1.3 1.3 0 01-.397.954 1.222 1.222 0 01-.917.396z" fill="#fff"/></svg>